<svg width="24" height="24" viewBox="0 0 24 24" fill="none" xmlns="http://www.w3.org/2000/svg">
<path fill-rule="evenodd" clip-rule="evenodd" d="M12.0112 6.75189C12.5687 6.74152 13.1074 6.95297 13.509 7.33975C13.9105 7.72653 14.142 8.25696 14.1525 8.81439C14.1313 9.36821 13.8964 9.8923 13.4971 10.2766C13.0978 10.661 12.5652 10.8757 12.0109 10.8757C11.4567 10.8757 10.924 10.661 10.5247 10.2766C10.1254 9.8923 9.89053 9.36821 9.86937 8.81439C9.87036 8.76192 9.87331 8.70968 9.87817 8.65778C9.88945 8.5374 9.91104 8.41882 9.94241 8.30327C9.96934 8.20405 10.0035 8.10706 10.0445 8.01308C10.0513 7.99741 10.0584 7.98183 10.0656 7.96634C10.1641 7.75474 10.298 7.55935 10.4632 7.38923C10.4795 7.37249 10.496 7.35599 10.5129 7.33975C10.538 7.31558 10.5636 7.29209 10.5898 7.26929C10.7181 7.15742 10.8586 7.06232 11.0079 6.98534C11.1628 6.90548 11.3271 6.84511 11.4971 6.80573C11.6123 6.77905 11.7301 6.76201 11.8493 6.75507C11.9028 6.75196 11.9566 6.75088 12.0106 6.75189H12.0112ZM12.0112 6.00001C12.772 5.98579 13.5072 6.27429 14.0552 6.80206C14.6033 7.32983 14.9193 8.05367 14.9337 8.81439C14.9188 9.57478 14.6026 10.2981 14.0546 10.8255C13.5204 11.3396 12.8087 11.6264 12.0688 11.6274C12.0494 11.6274 12.03 11.6273 12.0106 11.6269L12.0112 11.625C11.2508 11.6392 10.5159 11.351 9.96789 10.8236C9.4199 10.2963 9.10369 9.57291 9.08875 8.81252C9.10369 8.05212 9.4199 7.32877 9.96789 6.8014C10.5159 6.27403 11.2508 5.98579 12.0112 6.00001ZM18.02 8.46754C18.3361 8.46327 18.6466 8.5516 18.9131 8.72162C19.1796 8.89165 19.3906 9.13595 19.52 9.42442C19.6433 9.70943 19.676 10.0255 19.6136 10.3297C19.5512 10.6339 19.3968 10.9116 19.1712 11.125C18.9398 11.3443 18.6503 11.4926 18.337 11.5521C18.0238 11.6115 17.7001 11.5798 17.4044 11.4607C17.1126 11.3476 16.8617 11.1493 16.6843 10.8915C16.5069 10.6338 16.4113 10.3286 16.41 10.0157C16.4205 9.59763 16.5954 9.2006 16.8969 8.91075C17.1983 8.62091 17.6019 8.46165 18.02 8.46754ZM18.02 12.43C18.5102 12.4362 18.9915 12.2988 19.4046 12.0348C19.8177 11.7709 20.1446 11.3918 20.345 10.9444C20.5358 10.503 20.5866 10.0137 20.4903 9.54258C20.3941 9.07145 20.1555 8.64122 19.8069 8.31004C19.4489 7.96962 19.0007 7.73908 18.5156 7.6458C18.0304 7.55252 17.5287 7.60041 17.07 7.78379C16.6174 7.95718 16.2275 8.26268 15.9509 8.6606C15.6742 9.05851 15.5236 9.53044 15.5187 10.015C15.5314 10.6663 15.8016 11.286 16.2701 11.7385C16.7387 12.191 17.3674 12.4395 18.0187 12.4294L18.02 12.43ZM16.7256 13.935C16.5576 13.7063 16.3694 13.4931 16.1631 13.2981H16.145C16.7158 13.0098 17.3461 12.8591 17.9856 12.8581C19.0306 12.8386 20.0406 13.2347 20.7937 13.9594C21.5468 14.6841 21.9813 15.6782 22.0019 16.7231V17.2538H21.1469C21.1836 17.0793 21.2021 16.9015 21.2019 16.7231C21.1854 15.8956 20.8414 15.1084 20.2452 14.5342C19.649 13.9601 18.8494 13.6459 18.0219 13.6606C17.5753 13.6598 17.1336 13.7533 16.7256 13.935ZM14.9333 14.3723C15.7174 15.1269 16.1699 16.162 16.1912 17.25H17.0187C16.9931 15.9468 16.4511 14.707 15.5118 13.8031C14.5724 12.8993 13.3127 12.4054 12.0094 12.43C10.7061 12.4054 9.44631 12.8993 8.50698 13.8031C7.56765 14.707 7.02561 15.9468 7 17.25H7.8275C7.84885 16.162 8.30131 15.1269 9.08546 14.3723C9.86961 13.6177 10.9213 13.2052 12.0094 13.2257C13.0975 13.2052 14.1491 13.6177 14.9333 14.3723ZM2.87312 17.25C2.83634 17.0756 2.81791 16.8977 2.81812 16.7194C2.83455 15.8919 3.1786 15.1047 3.77478 14.5305C4.37096 13.9564 5.17056 13.6422 5.99812 13.6569C6.44471 13.6561 6.88643 13.7496 7.29438 13.9313C7.46235 13.7025 7.65061 13.4894 7.85688 13.2944C7.28706 13.0056 6.65758 12.854 6.01875 12.8519C5.50091 12.8419 4.98616 12.934 4.50392 13.1229C4.02167 13.3119 3.58138 13.594 3.20818 13.9531C2.83499 14.3123 2.5362 14.7414 2.3289 15.2161C2.1216 15.6907 2.00984 16.2016 2 16.7194V17.25H2.87312ZM5.99811 8.46754C6.31421 8.46458 6.62425 8.5542 6.89002 8.72534C7.15579 8.89649 7.36565 9.14167 7.49374 9.43066C7.61552 9.71591 7.64678 10.0317 7.58329 10.3353C7.5198 10.6388 7.36462 10.9156 7.13874 11.1282C6.90697 11.3467 6.61734 11.4942 6.30426 11.553C5.99117 11.6118 5.66778 11.5796 5.37249 11.46C5.08113 11.3468 4.83063 11.1485 4.6536 10.8908C4.47657 10.6332 4.38123 10.3282 4.37999 10.0157C4.39048 9.59619 4.56655 9.19792 4.86974 8.90785C5.17293 8.61778 5.57859 8.45948 5.99811 8.46754ZM5.99811 12.43C6.65098 12.4424 7.28206 12.1951 7.75261 11.7423C8.22316 11.2896 8.49468 10.6685 8.50749 10.0157C8.49485 9.36269 8.2234 8.74147 7.75283 8.2886C7.28226 7.83573 6.65109 7.58828 5.99811 7.60066C5.34525 7.58828 4.71417 7.83564 4.24362 8.28838C3.77307 8.74112 3.50155 9.36218 3.48874 10.015C3.48845 10.3347 3.55312 10.6512 3.67882 10.9451C3.80452 11.2391 3.98864 11.5044 4.21999 11.725C4.69859 12.1813 5.33566 12.4338 5.99686 12.4294L5.99811 12.43Z" />
</svg>
